<?xml version="1.0" encoding="UTF-8" standalone="no"?>
<!DOCTYPE svg PUBLIC "-//W3C//DTD SVG 1.1//EN" "http://www.w3.org/Graphics/SVG/1.1/DTD/svg11.dtd">
<svg version="1.1" xmlns="http://www.w3.org/2000/svg" xmlns:xlink="http://www.w3.org/1999/xlink" preserveAspectRatio="xMidYMid meet" viewBox="0 0 640 640" width="640" height="640"><defs><path d="M570 282.28C570 420.26 457.98 532.28 320 532.28C182.02 532.28 70 420.26 70 282.28C70 144.3 182.02 32.28 320 32.28C457.98 32.28 570 144.3 570 282.28Z" id="a143WCoQ3a"></path><linearGradient id="gradienta434ZanfGT" gradientUnits="userSpaceOnUse" x1="320" y1="32.28" x2="320" y2="528.41"><stop style="stop-color: #3092fa;stop-opacity: 1" offset="0%"></stop><stop style="stop-color: #ff7be5;stop-opacity: 1" offset="100%"></stop></linearGradient><path d="M429.5 210.29C445.12 194.67 470.45 194.67 486.07 210.29C486.07 210.29 486.07 210.29 486.07 210.29C388.01 308.35 326.73 369.63 302.22 394.14C294.41 401.95 281.74 401.95 273.93 394.14C271.11 391.31 276.76 396.97 273.93 394.14C266.12 386.33 266.12 373.67 273.93 365.86C310.7 329.09 395.56 244.24 429.5 210.29Z" id="a2lCkv77SU"></path><linearGradient id="gradientbWYdTl8C" gradientUnits="userSpaceOnUse" x1="470.79" y1="198.01" x2="278.07" y2="392.29"><stop style="stop-color: #ffffff;stop-opacity: 1" offset="0%"></stop><stop style="stop-color: #ffffff;stop-opacity: 1" offset="100%"></stop></linearGradient><path d="M296.49 360.72C302.45 366.67 302.45 376.33 296.49 382.29C292.99 385.79 293.28 385.5 289.78 389C283.82 394.96 274.17 394.96 268.21 389C256.45 377.24 227.05 347.84 180 300.79C180 300.79 180 300.79 180 300.79C195.62 285.17 220.95 285.17 236.57 300.79C250.71 314.93 278.85 343.08 296.49 360.72Z" id="d1NqHdKyVV"></path></defs><g><g><g><g><filter id="shadow3224144" x="-60" y="-97.72" width="768" height="784" filterUnits="userSpaceOnUse" primitiveUnits="userSpaceOnUse"><feFlood></feFlood><feComposite in2="SourceAlpha" operator="in"></feComposite><feGaussianBlur stdDeviation="7.07"></feGaussianBlur><feOffset dx="8" dy="24" result="afterOffset"></feOffset><feFlood flood-color="#000000" flood-opacity="0.16"></feFlood><feComposite in2="afterOffset" operator="in"></feComposite><feMorphology operator="dilate" radius="1"></feMorphology><feComposite in2="SourceAlpha" operator="out"></feComposite></filter><path d="M570 282.28C570 420.26 457.98 532.28 320 532.28C182.02 532.28 70 420.26 70 282.28C70 144.3 182.02 32.28 320 32.28C457.98 32.28 570 144.3 570 282.28Z" id="b2o6DN68xK" fill="white" fill-opacity="1" filter="url(#shadow3224144)"></path></g><use xlink:href="#a143WCoQ3a" opacity="1" fill="url(#gradienta434ZanfGT)"></use></g><g><use xlink:href="#a2lCkv77SU" opacity="1" fill="url(#gradientbWYdTl8C)"></use></g><g><use xlink:href="#d1NqHdKyVV" opacity="0.66" fill="#ffffff" fill-opacity="1"></use></g></g></g></svg>